    <svg
        className={className}
        fill="currentColor"
        viewBox="0 0 20 20"
        xmlns="http://www.w3.org/2000/svg"
    >
        <path
            clipRule="evenodd"
            d="M10 18a8 8 0 100-16 8 8 0 000 16zM4.332 8.027a6.012 6.012 0 011.912-2.706C6.512 5.72 7.97 5.5 9.428 5.5c1.398 0 2.773.19 3.902.512a.75.75 0 01.294 1.352l-3.08 1.54a.75.75 0 01-.84.043l-1.425-.855a.75.75 0 00-.842.043l-1.332.8a.75.75 0 01-1.15-.642v-1.3a.75.75 0 01.332-.607zM15.668 9.973c-1.13.323-2.505.512-3.903.512-1.457 0-2.915-.22-4.178-.636a.75.75 0 01-.293-1.352l3.08-1.54a.75.75 0 01.84.043l1.425.855a.75.75 0 00.842-.043l1.332-.8a.75.75 0 011.15.642v1.3a.75.75 0 01-.332.607z"
            fillRule="evenodd"
        />
    </svg>
